<svg id="Layer_2" xmlns="http://www.w3.org/2000/svg" viewBox="0 0 1024 600.8"><path d="M1024 176.6l-10.2-157.8S915.4 0 849.7 0 711.5 8.1 711.5 8.1L571.6 99.2 468.5 250.8l182.1 267.7s76.3 5.7 152.6 5.7 181-12.5 181-12.5l29.7-163.3s-68 22.7-146.9 22.7-95.3-18-95.3-18-48.4-21.9-48.4-75.8 30.5-75 30.5-75 43.8-44.5 104.7-44.5 103.9 4.7 103.9 4.7 44.4 7.8 61.6 14.1z" fill="#1b4834"/><path d="M110.4 518.5S141.7 321.6 141.7 8h242.7l-15.6 220.9L534.4 8.1h268.8L607.3 244.6l184.4 274H511.4l-142.7-248s-14.6 89.6-11.5 247.9H110.4z" fill="#edd098"/><path d="M37.7 518.5S69 321.6 69 8h242.7l-15.6 220.9L461.7 8.1h268.8L534.6 244.6l184.4 274H438.8l-142.7-248s-14.6 89.6-11.5 247.9H37.7z" fill="#5d2629"/><path d="M12 536.4h15.7L23 559.2c4.2-9.2 7.4-16.6 10.3-22.8h18.2l-14.6 23.5 2.4 33.2H23.2l.1-21.3-4.4 6.3-3.2 15H0l12-56.7zm31.1 56.7l12-56.7h17.3c0 22.3 0 28.5-.1 30.6h.5c1.1-8.1 3-21 4.4-27.3l.7-3.3h14.7l-12 56.7H62.9c.8-24.7.8-30.3.8-32.3h-.6c-.9 6.6-3.4 21.5-5 29.1l-.7 3.2H43.1zm87.3-28c-5.4 24.6-11.9 29.1-23.7 29.1-12.6 0-20-5.4-14.5-31.4 5-23.3 13-27.5 23.5-27.5 12.1 0 20 5.8 14.7 29.8zm-21.7-1.2c-3.6 17-3.4 18.7-1.3 18.7 2 0 2.8-2 6.2-18.5 3.4-15.7 3.1-17 1-17-1.7-.1-2.6 1.4-5.9 16.8zm38.1 29.2l.6-17h-.5l-5.6 17h-16.7l14.6-27.9-2.4-28.8h16.1l-.7 16.1h.7l5-16.1h16.4l-14.5 27.3 3.3 29.4h-16.3zm28.8 0l2.9-56.7h16.4l-2.7 19.5c-.9 6.9-2 15-3.2 22h.8c2-7.3 4.2-15.1 6.1-22l5.6-19.5h16.7l-21.4 56.7h-21.2zm62.3-56.7l-12 56.7h-16.3l12-56.7h16.3zm5.7 0h16.3l-9.4 44.3h15.4l-3.5 12.4h-30.8l12-56.7zm35.9 0h16.3l-9.4 44.3h15.4l-3.5 12.4h-30.8l12-56.7zm59.1 33.7h-14l-2.4 11H339l-3.8 12h-31.8l12-56.7h31l-2.6 12.1h-14.7l-2 9.4h14l-2.5 12.2zm25.7-33.7H380l-4.8 22.8c4.2-9.2 7.4-16.6 10.3-22.8h18.2L389 559.9l2.4 33.2h-15.9l.1-21.3-4.4 6.3-3.2 15h-15.7l12-56.7zm59.4 0l-12 56.7h-16.3l12-56.7h16.3zm5.6 0h16.1c15.1 0 19.7 9.5 15.6 28.8-4.3 20.6-9.1 27.9-24.6 27.9h-19.2l12.1-56.7zm6.7 45.5h1.1c3 0 3.9-.4 7.3-17.6 3.2-16 2.9-16.7-.1-16.7h-1.1l-7.2 34.3zm24.3 11.2l12-56.7h17.3c0 22.3 0 28.5-.1 30.6h.5c1.1-8.1 3-21 4.4-27.3l.7-3.3h14.7l-12 56.7h-17.7c.8-24.7.8-30.3.8-32.3h-.6c-.9 6.6-3.4 21.5-5 29.1l-.7 3.2h-14.3zm78.5-23h-14l-2.4 11h16.8l-3.8 12h-31.8l12-56.7h31l-2.6 12.1h-14.7l-2 9.4h14l-2.5 12.2zm11.6 23l3.5-17c.3-1.1.5-2.6.3-3.9l-3.6-35.8h16.7c-.3 5-1.1 16.8-1.7 23.5 2.6-8 5.6-16.5 8.1-23.5h17l-19.4 36.9c-.5 1-.7 1.6-.9 2.7l-3.7 17.1h-16.3zm83-18.6c-2.7 10.9-5.9 19.7-20.6 19.7-16.2 0-19.1-9-14.6-30.5 4.8-23.1 11.3-28.4 23.4-28.4 13.8 0 17.6 8.4 15.3 20.4h-16c1.3-7 1.3-8.9-.3-8.9-1.9 0-2.8 2.5-6 17.6-3.3 15.2-3.4 18.1-1.5 18.1 1.6 0 2.4-1.8 3.9-8h16.4zm35.4-4.4h-14l-2.4 11h16.8l-3.8 12h-31.8l12-56.7h31l-2.6 12.1h-14.7l-2 9.4h14l-2.5 12.2zm.7 23l12-56.7h17.3c0 22.3 0 28.5-.1 30.6h.5c1.1-8.1 3-21 4.4-27.3l.7-3.3H719l-12 56.7h-17.7c.8-24.7.8-30.3.8-32.3h-.6c-.9 6.6-3.5 21.5-5 29.1l-.7 3.2h-14.3zm60.7-44.6H721l2.6-12.1h34.3l-2.6 12.1h-8.9l-9.4 44.6h-16.2l9.4-44.6zm55.4 21.6h-14l-2.4 11H786l-3.8 12h-31.8l12-56.7h31l-2.6 12.1h-14.7l-2 9.4h14l-2.5 12.2zm21.4.4l-4.8 22.6h-16l12-56.7h19.1c12 0 16.7 6.6 14.6 17.1-1.3 6.8-4.9 10.4-9.5 11.6 4.2 2.3 5.4 6.2 4 13-1.3 5.8-2.8 13.4-2.9 15.1h-16c-.1-1.5 1.2-8.4 3-17.2.9-4.3.1-5.4-3.4-5.4h-.1zm2.4-10.9h1.2c2.8 0 4-.8 5-5.8.9-5 .3-6.5-2.7-6.5h-.9l-2.6 12.3zm16.6 41.2c5.2-9.3 8.7-19.5 9.9-25.3h14c-2.4 10.2-7.9 20.5-12 25.3H826zm50.3-64.4h17.1c12.4 0 18.3 7.4 15.6 20.6-2.7 13.1-9.9 16.9-21.3 16.9h-3.3l-4 19.2h-16.1l12-56.7zm10.5 25.9h1.4c3.1 0 4-1.9 5-7.6 1.2-5.9.6-7.2-2.1-7.2H890l-3.2 14.8zm30.5-25.9h16.3l-9.4 44.3h15.4l-3.5 12.4h-30.8l12-56.7zm35.9 0h16.3l-9.4 44.3h15.4l-3.5 12.4h-30.8l12-56.7zm61.9 38.1c-2.7 10.9-5.9 19.7-20.6 19.7-16.2 0-19.1-9-14.6-30.5 4.8-23.1 11.3-28.4 23.4-28.4 13.8 0 17.6 8.4 15.3 20.4h-16c1.3-7 1.3-8.9-.3-8.9-1.9 0-2.8 2.5-6 17.6-3.3 15.2-3.4 18.1-1.5 18.1 1.6 0 2.4-1.8 3.9-8h16.4z"/></svg>